<svg width="122" height="44" viewBox="0 0 122 44" fill="none" xmlns="http://www.w3.org/2000/svg">
<g clip-path="url(#clip0_1202_987)">
<path d="M4.9192 38.6462V40.5442L6.77987 38.6462H7.74626L5.57548 40.8011L7.76068 43.4054H6.77987L5.06344 41.2934L4.9192 41.4361V43.4054H4.18359V38.6462H4.9192Z" fill="white"/>
<path d="M8.86918 38.6462H11.9414V43.4054H11.2058V39.3312H9.60478V41.7001C9.60478 41.9284 9.59757 42.1139 9.58315 42.2566C9.56872 42.3946 9.52305 42.5515 9.44612 42.7275C9.37401 42.9035 9.26823 43.0486 9.1288 43.1628C8.89322 43.3531 8.60234 43.4482 8.25617 43.4482C8.15521 43.4482 8.04703 43.4339 7.93164 43.4054V42.7347C8.0278 42.7632 8.11674 42.7775 8.19848 42.7775C8.37637 42.7775 8.52061 42.7228 8.63119 42.6134C8.70811 42.542 8.7634 42.435 8.79706 42.2923C8.83552 42.1448 8.85716 42.0235 8.86197 41.9284C8.86677 41.8333 8.86918 41.6858 8.86918 41.486V38.6462Z" fill="white"/>
<path d="M12.5645 38.6462H13.4587L14.6992 41.1863L15.8242 38.6462H16.5887L14.4179 43.4054H13.6534L14.2737 42.0568L12.5645 38.6462Z" fill="white"/>
<path d="M17.2129 43.4054V38.6462H19.6216V39.3312H17.9485V40.5656H18.4245C18.9389 40.5656 19.3404 40.6916 19.6289 40.9438C19.9317 41.2054 20.0832 41.555 20.0832 41.9926C20.0832 42.2209 20.0303 42.4397 19.9245 42.649C19.8236 42.8536 19.6769 43.0201 19.4846 43.1485C19.225 43.3198 18.874 43.4054 18.4317 43.4054H17.2129ZM17.9485 41.2506V42.7204H18.3956C19.0399 42.7204 19.362 42.4802 19.362 41.9998C19.362 41.7905 19.2899 41.6145 19.1457 41.4718C19.0062 41.3243 18.761 41.2506 18.4101 41.2506H17.9485Z" fill="white"/>
<path d="M22.6914 38.6462H23.4198C23.7467 38.6462 24.0112 38.6724 24.2131 38.7247C24.415 38.777 24.5929 38.8746 24.7468 39.0173C25.0016 39.2551 25.129 39.5691 25.129 39.9591C25.129 40.1827 25.0809 40.3706 24.9848 40.5228C24.8982 40.6702 24.778 40.7796 24.6242 40.851C24.8742 40.9128 25.0809 41.027 25.2444 41.1935C25.4559 41.4123 25.5617 41.7096 25.5617 42.0854C25.5617 42.4326 25.4559 42.718 25.2444 42.9416C24.9463 43.2508 24.4968 43.4054 23.8958 43.4054H22.6914V38.6462ZM23.427 39.3312V40.694H23.6506C23.9198 40.694 24.1193 40.6322 24.2492 40.5085C24.3742 40.3896 24.4367 40.2088 24.4367 39.9662C24.4367 39.7712 24.379 39.619 24.2636 39.5096C24.1386 39.3907 23.9439 39.3312 23.6794 39.3312H23.427ZM23.427 41.2934V42.7204H23.8741C24.2059 42.7204 24.4487 42.6586 24.6025 42.5349C24.7612 42.4112 24.8405 42.2352 24.8405 42.0069C24.8405 41.8023 24.7756 41.6359 24.6458 41.5074C24.4968 41.3647 24.2444 41.2934 23.8886 41.2934H23.427Z" fill="white"/>
<path d="M29.7336 43.4054V40.2018L26.4883 43.6195V38.6463H27.2239V41.8643L30.4692 38.4465V43.4054H29.7336Z" fill="white"/>
<path d="M31.6211 38.6462H32.6812C33.1236 38.6462 33.4745 38.7319 33.7342 38.9031C33.9265 39.0315 34.0731 39.2004 34.1741 39.4097C34.2799 39.6142 34.3327 39.8307 34.3327 40.059C34.3327 40.4871 34.1765 40.8343 33.864 41.1007C33.5707 41.3481 33.1788 41.4718 32.6884 41.4718H32.3567V43.4054H31.6211V38.6462ZM32.3567 39.3169V40.8011H32.6884C32.9961 40.8011 33.2293 40.7345 33.388 40.6013C33.5467 40.4633 33.626 40.2802 33.626 40.0519C33.626 39.971 33.614 39.8949 33.5899 39.8235C33.5707 39.7522 33.5298 39.6761 33.4673 39.5952C33.4096 39.5096 33.3135 39.443 33.1788 39.3954C33.0442 39.3431 32.8784 39.3169 32.6812 39.3169H32.3567Z" fill="white"/>
<path d="M37.6788 39.3312H36.5753V43.4054H35.8397V39.3312H34.7363V38.6462H37.6788V39.3312Z" fill="white"/>
<path d="M37.9473 38.6462H38.8415L40.082 41.1863L41.207 38.6462H41.9715L39.8007 43.4054H39.0363L39.6565 42.0568L37.9473 38.6462Z" fill="white"/>
<path d="M45.4053 43.4054L44.9005 42.2567H42.8452L42.3187 43.4054H41.5254L43.9197 38.368L46.1986 43.4054H45.4053ZM43.148 41.5717H44.6048L43.8909 39.9592L43.148 41.5717Z" fill="white"/>
<path d="M47.4219 38.6462H50.4941V43.4054H49.7585V39.3312H48.1575V41.7001C48.1575 41.9284 48.1503 42.1139 48.1359 42.2566C48.1215 42.3946 48.0758 42.5515 47.9989 42.7275C47.9267 42.9035 47.821 43.0486 47.6815 43.1628C47.4459 43.3531 47.1551 43.4482 46.8089 43.4482C46.7079 43.4482 46.5998 43.4339 46.4844 43.4054V42.7347C46.5805 42.7632 46.6695 42.7775 46.7512 42.7775C46.9291 42.7775 47.0734 42.7228 47.184 42.6134C47.2609 42.542 47.3162 42.435 47.3499 42.2923C47.3883 42.1448 47.4099 42.0235 47.4147 41.9284C47.4195 41.8333 47.4219 41.6858 47.4219 41.486V38.6462Z" fill="white"/>
<path d="M51.6504 43.4054V38.6462H52.386V40.5656H52.9341C53.4485 40.5656 53.85 40.6916 54.1385 40.9438C54.4414 41.2054 54.5928 41.555 54.5928 41.9926C54.5928 42.2209 54.5399 42.4397 54.4342 42.649C54.3332 42.8536 54.1865 43.0201 53.9942 43.1485C53.7346 43.3198 53.3836 43.4054 52.9413 43.4054H51.6504ZM52.386 41.2506V42.7204H52.9053C53.5495 42.7204 53.8716 42.4802 53.8716 41.9998C53.8716 41.7905 53.7995 41.6145 53.6553 41.4718C53.5158 41.3243 53.2706 41.2506 52.9197 41.2506H52.386Z" fill="white"/>
<path d="M56.0774 38.6462V40.5299H58.14V38.6462H58.8756V43.4054H58.14V41.2149H56.0774V43.4054H55.3418V38.6462H56.0774Z" fill="white"/>
<path d="M60.515 39.267C60.991 38.7961 61.5872 38.5607 62.3035 38.5607C63.0199 38.5607 63.6161 38.7961 64.0921 39.267C64.568 39.738 64.806 40.3254 64.806 41.0294C64.806 41.7334 64.568 42.3209 64.0921 42.7918C63.6161 43.2627 63.0199 43.4982 62.3035 43.4982C61.5872 43.4982 60.991 43.2627 60.515 42.7918C60.0388 42.3209 59.8008 41.7334 59.8008 41.0294C59.8008 40.3254 60.0388 39.738 60.515 39.267ZM61.0342 42.328C61.366 42.661 61.7891 42.8275 62.3035 42.8275C62.818 42.8275 63.2411 42.661 63.5728 42.328C63.9046 41.9903 64.0704 41.5574 64.0704 41.0294C64.0704 40.5014 63.9046 40.0709 63.5728 39.738C63.2411 39.4002 62.818 39.2314 62.3035 39.2314C61.7891 39.2314 61.366 39.4002 61.0342 39.738C60.7025 40.0709 60.5366 40.5014 60.5366 41.0294C60.5366 41.5574 60.7025 41.9903 61.0342 42.328Z" fill="white"/>
<path d="M68.9758 43.4055V40.2018L65.7305 43.6195V38.6463H66.4661V41.8643L69.7114 38.4465V43.4055H68.9758ZM66.531 37.469L67.1079 37.2122C67.1368 37.3025 67.18 37.3786 67.2377 37.4405C67.3002 37.4976 67.3675 37.538 67.4397 37.5618C67.5166 37.5808 67.5743 37.5951 67.6128 37.6046C67.6512 37.6093 67.6873 37.6117 67.7209 37.6117C67.7546 37.6117 67.7906 37.6093 67.8291 37.6046C67.8676 37.5951 67.9229 37.5808 67.995 37.5618C68.0719 37.538 68.1392 37.4976 68.1969 37.4405C68.2594 37.3786 68.3051 37.3025 68.3339 37.2122L68.9109 37.469C68.8003 37.7354 68.632 37.9233 68.4061 38.0327C68.1849 38.1421 67.9565 38.1968 67.7209 38.1968C67.4853 38.1968 67.2546 38.1421 67.0286 38.0327C66.8074 37.9233 66.6416 37.7354 66.531 37.469Z" fill="white"/>
<path d="M72.5469 38.6462H73.607C74.0493 38.6462 74.4003 38.7319 74.6599 38.9031C74.8523 39.0315 74.9989 39.2004 75.0999 39.4097C75.2056 39.6142 75.2585 39.8307 75.2585 40.059C75.2585 40.4871 75.1023 40.8343 74.7898 41.1007C74.4965 41.3481 74.1046 41.4718 73.6142 41.4718H73.2825V43.4054H72.5469V38.6462ZM73.2825 39.3169V40.8011H73.6142C73.9219 40.8011 74.1551 40.7345 74.3138 40.6013C74.4724 40.4633 74.5518 40.2802 74.5518 40.0519C74.5518 39.971 74.5397 39.8949 74.5157 39.8235C74.4965 39.7522 74.4556 39.6761 74.3931 39.5952C74.3354 39.5096 74.2393 39.443 74.1046 39.3954C73.97 39.3431 73.8041 39.3169 73.607 39.3169H73.2825Z" fill="white"/>
<path d="M78.6657 38.6462V39.3312H76.7473V40.5371H78.608V41.222H76.7473V42.7204H78.6657V43.4054H76.0117V38.6462H78.6657Z" fill="white"/>
<path d="M82.9503 43.4054L82.4454 42.2567H80.3901L79.8636 43.4054H79.0703L81.4646 38.368L83.7436 43.4054H82.9503ZM80.693 41.5717H82.1498L81.4358 39.9592L80.693 41.5717Z" fill="white"/>
<path d="M84.9668 38.6462H88.0391V43.4054H87.3035V39.3312H85.7024V41.7001C85.7024 41.9284 85.6952 42.1139 85.6808 42.2566C85.6664 42.3946 85.6207 42.5515 85.5438 42.7275C85.4717 42.9035 85.3659 43.0486 85.2265 43.1628C84.9909 43.3531 84.7 43.4482 84.3538 43.4482C84.2529 43.4482 84.1447 43.4339 84.0293 43.4054V42.7347C84.1255 42.7632 84.2144 42.7775 84.2961 42.7775C84.474 42.7775 84.6183 42.7228 84.7288 42.6134C84.8058 42.542 84.8611 42.435 84.8947 42.2923C84.9332 42.1448 84.9548 42.0235 84.9596 41.9284C84.9644 41.8333 84.9668 41.6858 84.9668 41.486V38.6462Z" fill="white"/>
<path d="M89.1973 43.4054V38.6462H89.9329V40.5656H90.481C90.9954 40.5656 91.3969 40.6916 91.6853 40.9438C91.9882 41.2054 92.1397 41.555 92.1397 41.9926C92.1397 42.2209 92.0868 42.4397 91.981 42.649C91.8801 42.8536 91.7334 43.0201 91.5411 43.1485C91.2815 43.3198 90.9305 43.4054 90.4882 43.4054H89.1973ZM89.9329 41.2506V42.7204H90.4521C91.0964 42.7204 91.4185 42.4802 91.4185 41.9998C91.4185 41.7905 91.3464 41.6145 91.2022 41.4718C91.0627 41.3243 90.8175 41.2506 90.4665 41.2506H89.9329Z" fill="white"/>
<path d="M93.6223 38.6462V40.5299H95.6849V38.6462H96.4205V43.4054H95.6849V41.2149H93.6223V43.4054H92.8867V38.6462H93.6223Z" fill="white"/>
<path d="M98.0597 39.267C98.5357 38.7961 99.1318 38.5607 99.8482 38.5607C100.565 38.5607 101.161 38.7961 101.637 39.267C102.113 39.738 102.351 40.3254 102.351 41.0294C102.351 41.7334 102.113 42.3209 101.637 42.7918C101.161 43.2627 100.565 43.4982 99.8482 43.4982C99.1318 43.4982 98.5357 43.2627 98.0597 42.7918C97.5837 42.3209 97.3457 41.7334 97.3457 41.0294C97.3457 40.3254 97.5837 39.738 98.0597 39.267ZM98.5789 42.328C98.9107 42.661 99.3338 42.8275 99.8482 42.8275C100.363 42.8275 100.786 42.661 101.117 42.328C101.449 41.9903 101.615 41.5574 101.615 41.0294C101.615 40.5014 101.449 40.0709 101.117 39.738C100.786 39.4002 100.363 39.2314 99.8482 39.2314C99.3338 39.2314 98.9107 39.4002 98.5789 39.738C98.2472 40.0709 98.0813 40.5014 98.0813 41.0294C98.0813 41.5574 98.2472 41.9903 98.5789 42.328Z" fill="white"/>
<path d="M106.838 38.9032V39.7594C106.444 39.4074 106.009 39.2314 105.533 39.2314C105.014 39.2314 104.591 39.4026 104.264 39.7451C103.942 40.0828 103.781 40.5157 103.781 41.0437C103.781 41.5527 103.946 41.9784 104.278 42.3209C104.61 42.6586 105.031 42.8275 105.54 42.8275C106.016 42.8275 106.449 42.6443 106.838 42.2781V43.1414C106.434 43.3793 105.995 43.4982 105.519 43.4982C104.85 43.4982 104.283 43.2794 103.817 42.8418C103.302 42.3661 103.045 41.7667 103.045 41.0437C103.045 40.2826 103.302 39.6619 103.817 39.1814C104.259 38.7676 104.838 38.5607 105.555 38.5607C106.05 38.5607 106.478 38.6748 106.838 38.9032Z" fill="white"/>
<path d="M110.185 39.3312H109.081V43.4054H108.346V39.3312H107.242V38.6462H110.185V39.3312Z" fill="white"/>
<path d="M114.077 43.4054V40.2018L110.832 43.6195V38.6463H111.568V41.8643L114.813 38.4465V43.4054H114.077Z" fill="white"/>
<path d="M85.6396 6.54054L90.147 0H67.9105L61.9007 10.1081L69.1125 19.7301H77.5263L79.9302 22.5946L77.5263 25.5676H64.6051L60.0977 32.1083H81.4327L88.6445 22.0002L81.7332 13.081H72.8116L70.3145 10.1081L72.1174 6.54054H85.6396Z" fill="#F5F41B"/>
<path d="M39.5618 0H31.6523L30.8496 6.49766L38.7785 6.97512L39.5618 0Z" fill="#F5F41B"/>
<path d="M38.4768 9.65962L30.4254 9.93028L29.5331 17.1539C29.4148 18.119 29.2601 19.1865 29.0983 20.3034L29.0982 20.304C28.9085 21.6135 28.7089 22.9907 28.5467 24.3501C28.1613 27.5815 28.2462 27.3231 28.2462 27.3231L31.2512 32.402H55.2906C55.465 31.5248 55.6394 29.9549 55.8138 28.385C55.9399 27.2501 56.066 26.1152 56.1921 25.242C56.2877 24.5797 56.3833 23.9573 56.4816 23.3172C56.6923 21.9461 56.9154 20.4935 57.1781 18.3928L58.335 8.99207L50.3939 9.25904L48.0788 25.8648H36.6601L36.6634 25.8366H36.66L38.4768 9.65962Z" fill="#F5F41B"/>
<path d="M113.861 0H122.001L119.163 22.8316L111.073 22.2796L111.501 18.7741H99.7017L99.3609 21.4804L91.2734 20.9286L93.8408 0.269027L101.868 0.269063L101.567 2.35015L100.568 11.7696H112.368L113.861 0Z" fill="#F5F41B"/>
<path d="M110.731 25.0858L118.907 24.8998L118.052 31.7825H109.912L110.731 25.0858Z" fill="#F5F41B"/>
<path d="M90.6991 25.5413L98.8719 25.3555L98.063 31.7826H89.9238L90.6991 25.5413Z" fill="#F5F41B"/>
<path d="M22.565 17.5103C21.6017 18.5586 20.189 19.4005 18.3267 20.0358L25.84 32.3771H16.4002L8.1133 19.7498L6.31034 32.3771H0L2.7044 11.5663L2.54142 10.8675L9.96518 10.618L9.01478 15.1278H11.1024C14.8912 15.1278 16.7855 13.6507 16.7855 10.6964C16.7855 10.5865 16.7844 10.4843 16.7819 10.3889L25.162 10.1072C25.1645 10.2232 25.1657 10.3401 25.1657 10.4581C25.1657 10.6313 25.1626 10.8024 25.1564 10.9717C25.0587 13.6285 24.1949 15.808 22.565 17.5103Z" fill="#F5F41B"/>
<path d="M24.4382 6.11166L2.17383 4.77098L2.70358 0.594604H13.7986C17.9726 0.594604 20.9426 1.51584 22.7086 3.3583C23.4554 4.14064 24.032 5.05843 24.4382 6.11166Z" fill="#F5F41B"/>
<path d="M50.6133 7.68774L58.4379 8.15895L59.4421 0H51.6851L50.6133 7.68774Z" fill="#F5F41B"/>
</g>
<defs>
<clipPath id="clip0_1202_987">
<rect width="122" height="44" fill="white"/>
</clipPath>
</defs>
</svg>
